# xmcd CD database file
#
# Track frame offsets:
#	150
#	64927
#	109507
#	180497
#	220510
#	232920
#	241580
#
# Disc length: 3717 seconds
#
# Revision: 3
# Processed by: cddbd v1.5.2PL0 Copyright (c) Steve Scherf et al.
# Submitted via: CDex 1.51
#
DISCID=4c0e8307
DTITLE=Miles Davis - Vol. 135 - Blackhawk San Francisco, 1961, Vol.1
DYEAR=1965
DGENRE=Jazz
TTITLE0=Walkin 
TTITLE1=Bye Bye Blackbird
TTITLE2=All Of You
TTITLE3=No Blues
TTITLE4=Bye Bye (Theme)
TTITLE5=Love, I ve Found You
TTITLE6=Well You Needn t
EXTD=Entry: Martin Emmerich <me@grmbl.muc.de>\n03-Mar-1998 YEAR: 1965
EXTT0=
EXTT1=
EXTT2=
EXTT3=
EXTT4=
EXTT5=
EXTT6=
PLAYORDER=
